<svg width="389" height="65" viewBox="0 0 389 65" fill="none" xmlns="http://www.w3.org/2000/svg">
<path d="M51.36 28.04V37.96H5.44V28.04H51.36ZM13.04 33V58.92L7.44 52.44H53.84V63H0.32V33V3H53.44V13.56H7.44L13.04 7.08V33ZM110.499 44.68C110.019 48.52 108.553 51.9067 106.099 54.84C103.646 57.7733 100.499 60.0667 96.6594 61.72C92.8194 63.3733 88.526 64.2 83.7794 64.2C78.3927 64.2 73.6727 63.1867 69.6194 61.16C65.566 59.1333 62.3927 56.3333 60.0994 52.76C57.806 49.1867 56.6594 45.0267 56.6594 40.28C56.6594 35.5867 57.806 31.4533 60.0994 27.88C62.3927 24.2533 65.566 21.4267 69.6194 19.4C73.6727 17.3733 78.3927 16.36 83.7794 16.36C88.526 16.36 92.8194 17.1867 96.6594 18.84C100.499 20.4933 103.646 22.7867 106.099 25.72C108.553 28.6533 110.019 32.0667 110.499 35.96H98.0994C97.406 32.76 95.7527 30.28 93.1394 28.52C90.5794 26.76 87.4594 25.88 83.7794 25.88C80.846 25.88 78.2594 26.4667 76.0194 27.64C73.8327 28.76 72.126 30.3867 70.8994 32.52C69.726 34.6533 69.1394 37.24 69.1394 40.28C69.1394 43.2667 69.726 45.8533 70.8994 48.04C72.126 50.1733 73.8327 51.8267 76.0194 53C78.2594 54.12 80.846 54.68 83.7794 54.68C87.5127 54.68 90.6594 53.7733 93.2194 51.96C95.8327 50.1467 97.4594 47.72 98.0994 44.68H110.499ZM140.804 64.2C135.15 64.2 130.217 63.2133 126.004 61.24C121.79 59.2133 118.51 56.4133 116.164 52.84C113.817 49.2133 112.644 45.0267 112.644 40.28C112.644 35.5333 113.817 31.3733 116.164 27.8C118.51 24.2267 121.79 21.4267 126.004 19.4C130.217 17.3733 135.15 16.36 140.804 16.36C146.404 16.36 151.31 17.3733 155.524 19.4C159.737 21.4267 163.017 24.2267 165.364 27.8C167.764 31.3733 168.964 35.5333 168.964 40.28C168.964 45.0267 167.764 49.2133 165.364 52.84C163.017 56.4133 159.737 59.2133 155.524 61.24C151.31 63.2133 146.404 64.2 140.804 64.2ZM140.804 54.68C144.004 54.68 146.75 54.0933 149.044 52.92C151.39 51.7467 153.204 50.0933 154.484 47.96C155.764 45.8267 156.404 43.2667 156.404 40.28C156.404 37.2933 155.764 34.7333 154.484 32.6C153.204 30.4667 151.39 28.8133 149.044 27.64C146.75 26.4667 144.004 25.88 140.804 25.88C137.604 25.88 134.83 26.4667 132.484 27.64C130.137 28.8133 128.324 30.4667 127.044 32.6C125.764 34.7333 125.124 37.2933 125.124 40.28C125.124 43.2667 125.764 45.8267 127.044 47.96C128.324 50.0933 130.137 51.7467 132.484 52.92C134.83 54.0933 137.604 54.68 140.804 54.68ZM189.382 43.4H202.182C202.502 45.5867 203.435 47.48 204.982 49.08C206.529 50.68 208.582 51.9333 211.142 52.84C213.702 53.6933 216.689 54.12 220.102 54.12C225.009 54.12 228.902 53.4 231.782 51.96C234.662 50.4667 236.102 48.44 236.102 45.88C236.102 43.8 235.275 42.2267 233.622 41.16C231.969 40.0933 228.929 39.2933 224.502 38.76L212.182 37.32C204.555 36.4133 199.035 34.5733 195.622 31.8C192.209 29.0267 190.502 25.1867 190.502 20.28C190.502 16.44 191.622 13.1333 193.862 10.36C196.155 7.58666 199.382 5.48 203.542 4.04C207.755 2.54666 212.635 1.8 218.182 1.8C223.729 1.8 228.635 2.62666 232.902 4.28C237.169 5.88 240.555 8.12 243.062 11C245.622 13.88 247.009 17.2667 247.222 21.16H234.422C234.209 19.24 233.382 17.6133 231.942 16.28C230.555 14.8933 228.689 13.8267 226.342 13.08C223.995 12.28 221.195 11.88 217.942 11.88C213.409 11.88 209.809 12.5733 207.142 13.96C204.475 15.3467 203.142 17.2933 203.142 19.8C203.142 21.6667 203.915 23.1333 205.462 24.2C207.062 25.2133 209.889 25.9867 213.942 26.52L226.662 28.12C232.155 28.8133 236.502 29.8 239.702 31.08C242.902 32.3067 245.195 34.0133 246.582 36.2C248.022 38.3867 248.742 41.1333 248.742 44.44C248.742 48.44 247.542 51.9333 245.142 54.92C242.742 57.8533 239.355 60.1467 234.982 61.8C230.662 63.4 225.622 64.2 219.862 64.2C213.942 64.2 208.715 63.3467 204.182 61.64C199.702 59.88 196.155 57.4533 193.542 54.36C190.982 51.2133 189.595 47.56 189.382 43.4ZM279.694 64.2C274.041 64.2 269.108 63.2133 264.894 61.24C260.681 59.2133 257.401 56.4133 255.054 52.84C252.708 49.2133 251.534 45.0267 251.534 40.28C251.534 35.5333 252.708 31.3733 255.054 27.8C257.401 24.2267 260.681 21.4267 264.894 19.4C269.108 17.3733 274.041 16.36 279.694 16.36C285.294 16.36 290.201 17.3733 294.414 19.4C298.628 21.4267 301.908 24.2267 304.254 27.8C306.654 31.3733 307.854 35.5333 307.854 40.28C307.854 45.0267 306.654 49.2133 304.254 52.84C301.908 56.4133 298.628 59.2133 294.414 61.24C290.201 63.2133 285.294 64.2 279.694 64.2ZM279.694 54.68C282.894 54.68 285.641 54.0933 287.934 52.92C290.281 51.7467 292.094 50.0933 293.374 47.96C294.654 45.8267 295.294 43.2667 295.294 40.28C295.294 37.2933 294.654 34.7333 293.374 32.6C292.094 30.4667 290.281 28.8133 287.934 27.64C285.641 26.4667 282.894 25.88 279.694 25.88C276.494 25.88 273.721 26.4667 271.374 27.64C269.028 28.8133 267.214 30.4667 265.934 32.6C264.654 34.7333 264.014 37.2933 264.014 40.28C264.014 43.2667 264.654 45.8267 265.934 47.96C267.214 50.0933 269.028 51.7467 271.374 52.92C273.721 54.0933 276.494 54.68 279.694 54.68ZM340.741 9.24C337.221 9.24 334.634 9.90666 332.981 11.24C331.381 12.52 330.581 14.6533 330.581 17.64V63H318.181V19.96C318.181 15.9067 318.954 12.4133 320.501 9.48C322.047 6.49333 324.367 4.2 327.461 2.6C330.607 0.999997 334.581 0.199998 339.381 0.199998C341.407 0.199998 343.247 0.386664 344.901 0.759995C346.607 1.13333 348.234 1.61333 349.781 2.2V10.76C348.394 10.28 346.954 9.90666 345.461 9.64C344.021 9.37333 342.447 9.24 340.741 9.24ZM308.581 29.48V19.96H349.381V29.48H308.581ZM344.821 29.48V19.96H354.581L359.621 6.84H366.741V19.56H387.141V29.08H366.741V44.28C366.741 47.96 367.487 50.5467 368.981 52.04C370.527 53.48 373.141 54.2 376.821 54.2C379.114 54.2 381.141 53.96 382.901 53.48C384.714 52.9467 386.394 52.2267 387.941 51.32L388.021 61.08C386.527 61.8267 384.501 62.4933 381.941 63.08C379.381 63.72 376.714 64.04 373.941 64.04C369.354 64.04 365.621 63.2933 362.741 61.8C359.861 60.3067 357.727 58.2267 356.341 55.56C355.007 52.84 354.341 49.72 354.341 46.2V29.48H344.821Z" fill="#2E2E2E"/>
</svg>
