<svg width="45" height="11" viewBox="0 0 45 11" fill="none" xmlns="http://www.w3.org/2000/svg">
<path d="M6.924 6.46C6.924 6.668 6.912 6.888 6.888 7.12H1.632C1.672 7.768 1.892 8.276 2.292 8.644C2.7 9.004 3.192 9.184 3.768 9.184C4.24 9.184 4.632 9.076 4.944 8.86C5.264 8.636 5.488 8.34 5.616 7.972H6.792C6.616 8.604 6.264 9.12 5.736 9.52C5.208 9.912 4.552 10.108 3.768 10.108C3.144 10.108 2.584 9.968 2.088 9.688C1.6 9.408 1.216 9.012 0.936 8.5C0.656 7.98 0.516 7.38 0.516 6.7C0.516 6.02 0.652 5.424 0.924 4.912C1.196 4.4 1.576 4.008 2.064 3.736C2.56 3.456 3.128 3.316 3.768 3.316C4.392 3.316 4.944 3.452 5.424 3.724C5.904 3.996 6.272 4.372 6.528 4.852C6.792 5.324 6.924 5.86 6.924 6.46ZM5.796 6.232C5.796 5.816 5.704 5.46 5.52 5.164C5.336 4.86 5.084 4.632 4.764 4.48C4.452 4.32 4.104 4.24 3.72 4.24C3.168 4.24 2.696 4.416 2.304 4.768C1.92 5.12 1.7 5.608 1.644 6.232H5.796ZM7.95741 6.7C7.95741 6.02 8.09341 5.428 8.36541 4.924C8.63741 4.412 9.01341 4.016 9.49341 3.736C9.98141 3.456 10.5374 3.316 11.1614 3.316C11.9694 3.316 12.6334 3.512 13.1534 3.904C13.6814 4.296 14.0294 4.84 14.1974 5.536H13.0214C12.9094 5.136 12.6894 4.82 12.3614 4.588C12.0414 4.356 11.6414 4.24 11.1614 4.24C10.5374 4.24 10.0334 4.456 9.64941 4.888C9.26541 5.312 9.07341 5.916 9.07341 6.7C9.07341 7.492 9.26541 8.104 9.64941 8.536C10.0334 8.968 10.5374 9.184 11.1614 9.184C11.6414 9.184 12.0414 9.072 12.3614 8.848C12.6814 8.624 12.9014 8.304 13.0214 7.888H14.1974C14.0214 8.56 13.6694 9.1 13.1414 9.508C12.6134 9.908 11.9534 10.108 11.1614 10.108C10.5374 10.108 9.98141 9.968 9.49341 9.688C9.01341 9.408 8.63741 9.012 8.36541 8.5C8.09341 7.988 7.95741 7.388 7.95741 6.7ZM18.5225 10.108C17.9065 10.108 17.3465 9.968 16.8425 9.688C16.3465 9.408 15.9545 9.012 15.6665 8.5C15.3865 7.98 15.2465 7.38 15.2465 6.7C15.2465 6.028 15.3905 5.436 15.6785 4.924C15.9745 4.404 16.3745 4.008 16.8785 3.736C17.3825 3.456 17.9465 3.316 18.5705 3.316C19.1945 3.316 19.7585 3.456 20.2625 3.736C20.7665 4.008 21.1625 4.4 21.4505 4.912C21.7465 5.424 21.8945 6.02 21.8945 6.7C21.8945 7.38 21.7425 7.98 21.4385 8.5C21.1425 9.012 20.7385 9.408 20.2265 9.688C19.7145 9.968 19.1465 10.108 18.5225 10.108ZM18.5225 9.148C18.9145 9.148 19.2825 9.056 19.6265 8.872C19.9705 8.688 20.2465 8.412 20.4545 8.044C20.6705 7.676 20.7785 7.228 20.7785 6.7C20.7785 6.172 20.6745 5.724 20.4665 5.356C20.2585 4.988 19.9865 4.716 19.6505 4.54C19.3145 4.356 18.9505 4.264 18.5585 4.264C18.1585 4.264 17.7905 4.356 17.4545 4.54C17.1265 4.716 16.8625 4.988 16.6625 5.356C16.4625 5.724 16.3625 6.172 16.3625 6.7C16.3625 7.236 16.4585 7.688 16.6505 8.056C16.8505 8.424 17.1145 8.7 17.4425 8.884C17.7705 9.06 18.1305 9.148 18.5225 9.148ZM25.6583 10.108C25.1543 10.108 24.7023 10.024 24.3023 9.856C23.9023 9.68 23.5863 9.44 23.3543 9.136C23.1223 8.824 22.9943 8.468 22.9703 8.068H24.0983C24.1303 8.396 24.2823 8.664 24.5543 8.872C24.8343 9.08 25.1983 9.184 25.6463 9.184C26.0623 9.184 26.3903 9.092 26.6303 8.908C26.8703 8.724 26.9903 8.492 26.9903 8.212C26.9903 7.924 26.8623 7.712 26.6063 7.576C26.3503 7.432 25.9543 7.292 25.4183 7.156C24.9303 7.028 24.5303 6.9 24.2183 6.772C23.9143 6.636 23.6503 6.44 23.4263 6.184C23.2103 5.92 23.1023 5.576 23.1023 5.152C23.1023 4.816 23.2023 4.508 23.4023 4.228C23.6023 3.948 23.8863 3.728 24.2543 3.568C24.6223 3.4 25.0423 3.316 25.5143 3.316C26.2423 3.316 26.8303 3.5 27.2783 3.868C27.7263 4.236 27.9663 4.74 27.9983 5.38H26.9063C26.8823 5.036 26.7423 4.76 26.4863 4.552C26.2383 4.344 25.9023 4.24 25.4783 4.24C25.0863 4.24 24.7743 4.324 24.5423 4.492C24.3103 4.66 24.1943 4.88 24.1943 5.152C24.1943 5.368 24.2623 5.548 24.3983 5.692C24.5423 5.828 24.7183 5.94 24.9263 6.028C25.1423 6.108 25.4383 6.2 25.8143 6.304C26.2863 6.432 26.6703 6.56 26.9663 6.688C27.2623 6.808 27.5143 6.992 27.7223 7.24C27.9383 7.488 28.0503 7.812 28.0583 8.212C28.0583 8.572 27.9583 8.896 27.7583 9.184C27.5583 9.472 27.2743 9.7 26.9063 9.868C26.5463 10.028 26.1303 10.108 25.6583 10.108ZM32.4678 10.108C31.8518 10.108 31.2918 9.968 30.7878 9.688C30.2918 9.408 29.8998 9.012 29.6118 8.5C29.3318 7.98 29.1918 7.38 29.1918 6.7C29.1918 6.028 29.3358 5.436 29.6238 4.924C29.9198 4.404 30.3198 4.008 30.8238 3.736C31.3278 3.456 31.8918 3.316 32.5158 3.316C33.1398 3.316 33.7038 3.456 34.2078 3.736C34.7118 4.008 35.1078 4.4 35.3958 4.912C35.6918 5.424 35.8398 6.02 35.8398 6.7C35.8398 7.38 35.6878 7.98 35.3838 8.5C35.0878 9.012 34.6838 9.408 34.1718 9.688C33.6598 9.968 33.0918 10.108 32.4678 10.108ZM32.4678 9.148C32.8598 9.148 33.2278 9.056 33.5718 8.872C33.9158 8.688 34.1918 8.412 34.3998 8.044C34.6158 7.676 34.7238 7.228 34.7238 6.7C34.7238 6.172 34.6198 5.724 34.4118 5.356C34.2038 4.988 33.9318 4.716 33.5958 4.54C33.2598 4.356 32.8958 4.264 32.5038 4.264C32.1038 4.264 31.7358 4.356 31.3998 4.54C31.0718 4.716 30.8078 4.988 30.6078 5.356C30.4078 5.724 30.3078 6.172 30.3078 6.7C30.3078 7.236 30.4038 7.688 30.5958 8.056C30.7958 8.424 31.0598 8.7 31.3878 8.884C31.7158 9.06 32.0758 9.148 32.4678 9.148ZM39.9516 4.324H38.5716V10H37.4796V4.324H36.6276V3.424H37.4796V2.956C37.4796 2.22 37.6676 1.684 38.0436 1.348C38.4276 1.004 39.0396 0.831999 39.8796 0.831999V1.744C39.3996 1.744 39.0596 1.84 38.8596 2.032C38.6676 2.216 38.5716 2.524 38.5716 2.956V3.424H39.9516V4.324ZM42.5568 4.324V8.2C42.5568 8.52 42.6248 8.748 42.7608 8.884C42.8968 9.012 43.1328 9.076 43.4688 9.076H44.2728V10H43.2888C42.6808 10 42.2248 9.86 41.9208 9.58C41.6168 9.3 41.4648 8.84 41.4648 8.2V4.324H40.6128V3.424H41.4648V1.768H42.5568V3.424H44.2728V4.324H42.5568Z" fill="black"/>
</svg>
